<svg xmlns="http://www.w3.org/2000/svg" viewBox="0 0 400 280">
  <rect width="400" height="280" fill="white"/>
  <text x="200" y="35" text-anchor="middle" font-family="system-ui, sans-serif" font-size="20" font-weight="bold" fill="#1e293b">How to Serve Cheese</text>
  
  <rect x="80" y="48" width="240" height="25" rx="5" fill="#dbeafe"/>
  <text x="200" y="66" text-anchor="middle" font-family="system-ui" font-size="10" fill="#1e40af">🧀 Dairy allergen - introduce early! Choose LOW SODIUM</text>
  
  <!-- 6-8 months -->
  <text x="80" y="100" text-anchor="middle" font-family="system-ui" font-size="12" font-weight="600" fill="#475569">6-8 months</text>
  <text x="80" y="115" text-anchor="middle" font-family="system-ui" font-size="10" fill="#64748b">(thin strips or</text>
  <text x="80" y="127" text-anchor="middle" font-family="system-ui" font-size="10" fill="#64748b">grated on food)</text>
  <g transform="translate(40, 135)">
    <rect x="0" y="0" width="80" height="15" rx="3" fill="#fbbf24"/>
    <rect x="5" y="22" width="70" height="14" rx="3" fill="#fcd34d"/>
    <rect x="10" y="42" width="60" height="15" rx="3" fill="#fbbf24"/>
  </g>
  
  <path d="M 130 165 Q 165 135 200 165" stroke="#475569" stroke-width="2" fill="none" marker-end="url(#arrow)"/>
  
  <!-- 9-12 months -->
  <text x="200" y="100" text-anchor="middle" font-family="system-ui" font-size="12" font-weight="600" fill="#475569">9-12 months</text>
  <text x="200" y="115" text-anchor="middle" font-family="system-ui" font-size="10" fill="#64748b">(cubes or</text>
  <text x="200" y="127" text-anchor="middle" font-family="system-ui" font-size="10" fill="#64748b">sticks)</text>
  <g transform="translate(160, 135)">
    <rect x="0" y="0" width="25" height="25" rx="3" fill="#fbbf24"/>
    <rect x="30" y="5" width="22" height="22" rx="3" fill="#fcd34d"/>
    <rect x="58" y="2" width="24" height="24" rx="3" fill="#fbbf24"/>
    <rect x="10" y="32" width="23" height="23" rx="3" fill="#fcd34d"/>
    <rect x="40" y="35" width="25" height="25" rx="3" fill="#fbbf24"/>
  </g>
  
  <path d="M 255 165 Q 290 135 320 165" stroke="#475569" stroke-width="2" fill="none" marker-end="url(#arrow)"/>
  
  <!-- 12+ months -->
  <text x="320" y="100" text-anchor="middle" font-family="system-ui" font-size="12" font-weight="600" fill="#475569">12+ months</text>
  <text x="320" y="115" text-anchor="middle" font-family="system-ui" font-size="10" fill="#64748b">(slices,</text>
  <text x="320" y="127" text-anchor="middle" font-family="system-ui" font-size="10" fill="#64748b">any style)</text>
  <g transform="translate(280, 130)">
    <rect x="0" y="10" width="80" height="50" rx="5" fill="#fbbf24"/>
    <circle cx="20" cy="30" r="6" fill="#fef3c7"/>
    <circle cx="50" cy="40" r="8" fill="#fef3c7"/>
    <circle cx="65" cy="25" r="5" fill="#fef3c7"/>
  </g>
  
  <rect x="40" y="210" width="320" height="55" rx="8" fill="#ecfdf5"/>
  <text x="200" y="232" text-anchor="middle" font-family="system-ui" font-size="11" fill="#065f46" font-weight="600">💡 Best starters: mild cheddar, mozzarella, Swiss</text>
  <text x="200" y="250" text-anchor="middle" font-family="system-ui" font-size="10" fill="#065f46">Avoid high-sodium varieties. Great calcium and healthy fat source!</text>
  
  <defs><marker id="arrow" markerWidth="10" markerHeight="10" refX="9" refY="3" orient="auto"><path d="M0,0 L0,6 L9,3 z" fill="#475569"/></marker></defs>
</svg>