<svg xmlns="http://www.w3.org/2000/svg" viewBox="0 0 400 280">
  <rect width="400" height="280" fill="white"/>
  <text x="200" y="35" text-anchor="middle" font-family="system-ui, sans-serif" font-size="20" font-weight="bold" fill="#1e293b">How to Serve Peas</text>
  
  <text x="100" y="70" text-anchor="middle" font-family="system-ui" font-size="12" font-weight="600" fill="#475569">6-8 months</text>
  <text x="100" y="85" text-anchor="middle" font-family="system-ui" font-size="10" fill="#64748b">(smashed flat)</text>
  <g transform="translate(55, 100)">
    <ellipse cx="22" cy="12" rx="22" ry="10" fill="#22c55e"/>
    <ellipse cx="60" cy="14" rx="20" ry="9" fill="#4ade80"/>
    <ellipse cx="25" cy="42" rx="21" ry="10" fill="#4ade80"/>
    <ellipse cx="65" cy="40" rx="22" ry="11" fill="#22c55e"/>
  </g>
  
  <path d="M 170 130 Q 200 100 230 130" stroke="#475569" stroke-width="2" fill="none" marker-end="url(#arrow)"/>
  
  <text x="300" y="70" text-anchor="middle" font-family="system-ui" font-size="12" font-weight="600" fill="#475569">9+ months</text>
  <text x="300" y="85" text-anchor="middle" font-family="system-ui" font-size="10" fill="#64748b">(whole peas)</text>
  <g transform="translate(260, 100)">
    <circle cx="18" cy="15" r="12" fill="#22c55e"/>
    <circle cx="45" cy="12" r="11" fill="#4ade80"/>
    <circle cx="70" cy="15" r="12" fill="#22c55e"/>
    <circle cx="22" cy="42" r="11" fill="#4ade80"/>
    <circle cx="50" cy="45" r="12" fill="#22c55e"/>
  </g>
  
  <rect x="40" y="195" width="320" height="70" rx="8" fill="#ecfdf5"/>
  <text x="200" y="220" text-anchor="middle" font-family="system-ui" font-size="11" fill="#065f46" font-weight="600">💡 Great for pincer grasp practice!</text>
  <text x="200" y="240" text-anchor="middle" font-family="system-ui" font-size="10" fill="#065f46">Frozen peas are just as nutritious. Smash early on to reduce choking risk.</text>
  
  <defs><marker id="arrow" markerWidth="10" markerHeight="10" refX="9" refY="3" orient="auto"><path d="M0,0 L0,6 L9,3 z" fill="#475569"/></marker></defs>
</svg>