<svg xmlns="http://www.w3.org/2000/svg" viewBox="0 0 400 280">
  <rect width="400" height="280" fill="white"/>
  <text x="200" y="35" text-anchor="middle" font-family="system-ui, sans-serif" font-size="20" font-weight="bold" fill="#1e293b">How to Serve Yogurt</text>
  
  <rect x="60" y="50" width="280" height="25" rx="5" fill="#dbeafe"/>
  <text x="200" y="68" text-anchor="middle" font-family="system-ui" font-size="10" fill="#1e40af">🥛 Dairy allergen - introduce early! Full-fat, plain, no sugar</text>
  
  <text x="100" y="105" text-anchor="middle" font-family="system-ui" font-size="12" font-weight="600" fill="#475569">All ages from 6mo</text>
  <text x="100" y="120" text-anchor="middle" font-family="system-ui" font-size="10" fill="#64748b">(preloaded spoon</text>
  <text x="100" y="132" text-anchor="middle" font-family="system-ui" font-size="10" fill="#64748b">or self-feeding)</text>
  <g transform="translate(45, 140)">
    <ellipse cx="55" cy="30" rx="50" ry="25" fill="#f8fafc" stroke="#e2e8f0" stroke-width="2"/>
    <ellipse cx="55" cy="25" rx="40" ry="18" fill="#fefce8"/>
    <rect x="100" y="20" width="8" height="35" rx="3" fill="#94a3b8"/>
    <ellipse cx="104" cy="55" rx="10" ry="6" fill="#94a3b8"/>
    <path d="M95 35 L 75 30" stroke="#94a3b8" stroke-width="2"/>
  </g>
  
  <path d="M 175 175 Q 210 145 245 175" stroke="#475569" stroke-width="2" fill="none" marker-end="url(#arrow)"/>
  
  <text x="300" y="105" text-anchor="middle" font-family="system-ui" font-size="12" font-weight="600" fill="#475569">Fun variations</text>
  <text x="300" y="120" text-anchor="middle" font-family="system-ui" font-size="10" fill="#64748b">(add fruit, let</text>
  <text x="300" y="132" text-anchor="middle" font-family="system-ui" font-size="10" fill="#64748b">baby dip foods)</text>
  <g transform="translate(255, 140)">
    <ellipse cx="45" cy="28" rx="42" ry="22" fill="#f8fafc" stroke="#e2e8f0" stroke-width="2"/>
    <ellipse cx="45" cy="23" rx="35" ry="15" fill="#fefce8"/>
    <circle cx="30" cy="22" r="8" fill="#ef4444"/>
    <circle cx="50" cy="20" r="7" fill="#6366f1"/>
    <circle cx="60" cy="25" r="6" fill="#ef4444"/>
    <rect x="70" y="5" width="12" height="35" rx="2" fill="#fbbf24"/>
    <text x="45" y="65" text-anchor="middle" font-size="8" fill="#64748b">+ fruit + toast stick</text>
  </g>
  
  <rect x="30" y="210" width="340" height="55" rx="8" fill="#ecfdf5"/>
  <text x="200" y="232" text-anchor="middle" font-family="system-ui" font-size="11" fill="#065f46" font-weight="600">💡 Greek yogurt is thicker - great for self-feeding!</text>
  <text x="200" y="250" text-anchor="middle" font-family="system-ui" font-size="10" fill="#065f46">Always plain, full-fat, unsweetened. Add your own mashed fruit!</text>
  
  <defs><marker id="arrow" markerWidth="10" markerHeight="10" refX="9" refY="3" orient="auto"><path d="M0,0 L0,6 L9,3 z" fill="#475569"/></marker></defs>
</svg>